{
  "accessors": [
    {
      "bufferView": 2,
      "componentType": 5126,
      "count": 533,
      "max": [0.9339651465415955, 0.03368152305483818, 1.1614865064620972],
      "min": [-0.9400731921195984, -0.24922886490821838, -0.820128858089447],
      "type": "VEC3"
    },
    {
      "bufferView": 2,
      "byteOffset": 6396,
      "componentType": 5126,
      "count": 533,
      "max": [0.9992387890815735, 0.9999463558197021, 0.9873654842376709],
      "min": [-0.9942197203636169, -0.9999672174453735, -0.9687333703041077],
      "type": "VEC3"
    },
    {
      "bufferView": 1,
      "componentType": 5126,
      "count": 533,
      "max": [0.9411487579345703, 0.9902685880661011],
      "min": [0.008236199617385864, 0.008251875638961792],
      "type": "VEC2"
    },
    {
      "bufferView": 1,
      "byteOffset": 4264,
      "componentType": 5126,
      "count": 533,
      "max": [0.9411487579345703, 0.9902685880661011],
      "min": [0.008236199617385864, 0.008251875638961792],
      "type": "VEC2"
    },
    {
      "bufferView": 0,
      "componentType": 5125,
      "count": 2454,
      "type": "SCALAR"
    }
  ],
  "asset": {
    "extras": {
      "author": "Aaron XR Dev (https://sketchfab.com/AaronXRdev)",
      "license": "CC-BY-4.0 (http://creativecommons.org/licenses/by/4.0/)",
      "source": "https://sketchfab.com/3d-models/a-slice-of-pizza-2ee2003561cd42789f6346ed1b65b2ef",
      "title": "A slice of pizza"
    },
    "generator": "Sketchfab-12.79.0",
    "version": "2.0"
  },
  "bufferViews": [
    {
      "buffer": 0,
      "byteLength": 9816,
      "name": "floatBufferViews",
      "target": 34963
    },
    {
      "buffer": 0,
      "byteLength": 8528,
      "byteOffset": 9816,
      "byteStride": 8,
      "name": "floatBufferViews",
      "target": 34962
    },
    {
      "buffer": 0,
      "byteLength": 12792,
      "byteOffset": 18344,
      "byteStride": 12,
      "name": "floatBufferViews",
      "target": 34962
    }
  ],
  "buffers": [
    {
      "byteLength": 31136,
      "uri": "pizza.bin"
    }
  ],
  "images": [
    {
      "uri": "textures/Pizza_baseColor.png"
    },
    {
      "uri": "textures/Pizza_metallicRoughness.png"
    }
  ],
  "materials": [
    {
      "doubleSided": true,
      "name": "Pizza",
      "pbrMetallicRoughness": {
        "baseColorTexture": {
          "index": 0
        },
        "metallicFactor": 0.0,
        "metallicRoughnessTexture": {
          "index": 1
        },
        "roughnessFactor": 0.2544769660250393
      }
    }
  ],
  "meshes": [
    {
      "name": "Pizza_Pizza_0",
      "primitives": [
        {
          "attributes": {
            "NORMAL": 1,
            "POSITION": 0,
            "TEXCOORD_0": 2,
            "TEXCOORD_1": 3
          },
          "indices": 4,
          "material": 0,
          "mode": 4
        }
      ]
    }
  ],
  "nodes": [
    {
      "children": [1],
      "matrix": [
        1.0, 1.6697123724935898e-20, -7.519716018578038e-5, 0.0, 0.0, -1.0,
        -2.441789291042683e-16, 0.0, -7.519716018578038e-5,
        2.441789291042683e-16, -1.0, 0.0, 1.2834520020987839e-5,
        0.06290424615144724, 0.27845215797424316, 1.0
      ],
      "name": "Sketchfab_model"
    },
    {
      "children": [2],
      "matrix": [
        0.009999999776482582, 0.0, 0.0, 0.0, 0.0, 0.0, 0.009999999776482582,
        0.0, 0.0, -0.009999999776482582, 0.0, 0.0, 0.0, 0.0, 0.0, 1.0
      ],
      "name": "09adead67ec5469a825ee48453cf136a.fbx"
    },
    {
      "children": [3, 6, 8],
      "name": "RootNode"
    },
    {
      "children": [4],
      "matrix": [
        -29.08647719990347, -5.518906457566863, -95.51711910171437, 0.0,
        56.63930913109449, 79.46723428563203, -21.83912397841966, 0.0,
        77.11008775993375, -60.45246356562044, -19.98834696773717, 0.0,
        -99.77677154541016, 224.30372619628906, 397.0634460449219, 1.0
      ],
      "name": "Light"
    },
    {
      "children": [5],
      "matrix": [
        1.0, 0.0, 0.0, 0.0, 0.0, 2.220446049250313e-16, 1.0, 0.0, 0.0, -1.0,
        2.220446049250313e-16, 0.0, 0.0, 0.0, 0.0, 1.0
      ],
      "name": "Object_4"
    },
    {
      "name": "Object_5"
    },
    {
      "children": [7],
      "matrix": [
        1.805552212867645, 91.84397286737031, -39.514865925931645, 0.0,
        0.8978852445217511, 39.50482040522056, 91.86165123074449, 0.0,
        99.9796668492863, -2.013408227114949, -0.11137332134283362, 0.0,
        -2.292078733444214, -290.3830261230469, 126.0346908569336, 1.0
      ],
      "name": "Camera"
    },
    {
      "name": "Object_7"
    },
    {
      "children": [9],
      "matrix": [
        100.0, 0.0, 0.0, 0.0, 0.0, -1.629206793918314e-5, -99.99999999999868,
        0.0, 0.0, 99.99999999999868, -1.629206793918314e-5, 0.0, 0.0, 0.0, 0.0,
        1.0
      ],
      "name": "Pizza"
    },
    {
      "mesh": 0,
      "name": "Pizza_Pizza_0"
    }
  ],
  "samplers": [
    {
      "magFilter": 9729,
      "minFilter": 9987,
      "wrapS": 10497,
      "wrapT": 10497
    }
  ],
  "scene": 0,
  "scenes": [
    {
      "name": "Sketchfab_Scene",
      "nodes": [0]
    }
  ],
  "textures": [
    {
      "sampler": 0,
      "source": 0
    },
    {
      "sampler": 0,
      "source": 1
    }
  ]
}
